<?xml version="1.0" encoding="UTF-8"?>
<svg xmlns="http://www.w3.org/2000/svg" xmlns:xlink="http://www.w3.org/1999/xlink" width="24px" height="24px" viewBox="0 0 24 23" version="1.1">
<g id="surface1">
<path style=" stroke:none;fill-rule:nonzero;fill:rgb(0%,0%,0%);fill-opacity:1;" d="M 15.132812 0.1875 C 15.035156 0.25 14.976562 0.320312 14.976562 0.382812 C 14.976562 0.4375 15.097656 0.65625 15.238281 0.875 C 15.652344 1.480469 15.652344 1.632812 15.238281 1.632812 L 15.007812 1.632812 L 14.71875 1.242188 C 14.46875 0.910156 14.398438 0.851562 14.269531 0.835938 C 14.039062 0.8125 13.824219 1.019531 13.789062 1.296875 C 13.777344 1.417969 13.777344 1.585938 13.796875 1.675781 C 13.832031 1.871094 14.347656 2.636719 14.515625 2.738281 C 14.578125 2.777344 14.808594 2.84375 15.023438 2.878906 C 15.726562 2.996094 15.804688 3.074219 15.679688 3.515625 C 15.636719 3.675781 15.601562 3.960938 15.601562 4.148438 C 15.601562 4.636719 15.507812 4.945312 15.046875 5.988281 C 14.824219 6.503906 14.609375 6.972656 14.585938 7.035156 C 14.496094 7.246094 14.4375 7.050781 14.394531 6.40625 C 14.355469 5.863281 14.183594 4.65625 14.136719 4.609375 C 14.125 4.601562 14.222656 4.386719 14.351562 4.136719 C 14.476562 3.886719 14.597656 3.601562 14.617188 3.5 C 14.722656 2.898438 14.230469 2.484375 12.855469 2.03125 C 10.761719 1.339844 9.148438 1.417969 7.265625 2.300781 C 6.574219 2.621094 6.214844 2.910156 6.015625 3.304688 C 5.886719 3.554688 5.878906 3.589844 5.886719 4.253906 C 5.886719 4.785156 5.914062 5.050781 5.992188 5.402344 C 6.113281 5.9375 6.125 6.132812 6.019531 6.214844 C 5.910156 6.300781 5.8125 6.496094 5.753906 6.757812 C 5.636719 7.308594 6.015625 8.101562 6.550781 8.417969 C 6.644531 8.46875 6.867188 8.542969 7.066406 8.578125 C 7.371094 8.632812 7.433594 8.660156 7.578125 8.816406 C 7.90625 9.175781 8.0625 9.371094 8.0625 9.421875 C 8.0625 9.449219 7.863281 9.574219 7.613281 9.703125 C 7.136719 9.945312 6.546875 10.34375 6.070312 10.742188 C 5.898438 10.882812 5.699219 11.007812 5.585938 11.035156 C 5.386719 11.085938 5.042969 11.367188 4.890625 11.609375 C 4.84375 11.6875 4.800781 11.835938 4.800781 11.9375 C 4.800781 12.070312 4.746094 12.203125 4.609375 12.421875 C 4.234375 13 4.191406 13.34375 4.433594 13.8125 C 4.617188 14.175781 5.011719 14.5625 5.875 15.226562 C 6.296875 15.550781 6.699219 15.898438 6.769531 15.988281 C 6.878906 16.144531 6.886719 16.222656 6.9375 16.988281 C 6.980469 17.769531 6.988281 17.816406 7.09375 17.886719 C 7.230469 17.972656 7.234375 18.199219 7.105469 19.019531 C 6.949219 19.996094 6.988281 20.226562 7.335938 20.496094 L 7.460938 20.597656 L 7.210938 20.71875 C 6.875 20.878906 6.667969 21.0625 6.511719 21.335938 C 6.222656 21.851562 6.234375 22.359375 6.5625 22.71875 L 6.734375 22.914062 L 8.441406 22.898438 C 10.34375 22.886719 10.378906 22.875 10.527344 22.578125 C 10.566406 22.492188 10.644531 22.195312 10.699219 21.914062 C 10.757812 21.632812 10.832031 21.296875 10.871094 21.167969 L 10.949219 20.929688 L 11.414062 20.71875 C 11.839844 20.519531 11.890625 20.511719 12 20.566406 C 12.152344 20.648438 12.3125 20.957031 12.414062 21.367188 C 12.457031 21.542969 12.53125 21.855469 12.582031 22.058594 C 12.6875 22.488281 12.777344 22.621094 13.035156 22.746094 C 13.210938 22.828125 13.34375 22.839844 14.847656 22.851562 L 16.46875 22.871094 L 16.652344 22.6875 C 17.21875 22.117188 16.847656 20.910156 16.035156 20.679688 C 15.742188 20.597656 15.433594 20.589844 15.144531 20.652344 C 15 20.6875 14.9375 20.679688 14.886719 20.636719 C 14.792969 20.542969 14.855469 20.394531 15.097656 20.152344 C 15.207031 20.039062 15.328125 19.894531 15.355469 19.835938 C 15.433594 19.691406 15.425781 19.261719 15.339844 18.675781 C 15.230469 17.957031 15.238281 17.570312 15.375 17.355469 C 15.46875 17.195312 15.480469 17.113281 15.496094 16.371094 C 15.523438 15.175781 15.335938 13.804688 15 12.746094 C 14.933594 12.53125 14.878906 12.324219 14.878906 12.28125 C 14.878906 12.242188 15.066406 11.9375 15.292969 11.609375 C 15.519531 11.285156 15.859375 10.722656 16.042969 10.359375 C 16.320312 9.824219 16.402344 9.707031 16.484375 9.707031 C 16.71875 9.707031 16.902344 9.480469 16.992188 9.082031 C 17.074219 8.738281 17.015625 8.527344 16.769531 8.28125 L 16.566406 8.070312 L 16.683594 7.613281 C 16.910156 6.757812 17.273438 5.441406 17.328125 5.3125 C 17.371094 5.203125 17.386719 5.199219 17.457031 5.25 C 17.625 5.382812 17.808594 5.675781 17.808594 5.8125 C 17.8125 6.128906 18.105469 6.511719 18.425781 6.632812 C 18.59375 6.691406 19 6.6875 19.175781 6.625 C 19.859375 6.375 19.921875 5.414062 19.277344 5.035156 C 18.753906 4.734375 18.238281 4.171875 18.167969 3.816406 C 18.078125 3.394531 17.542969 2.714844 17.132812 2.496094 C 17.007812 2.433594 16.886719 2.335938 16.859375 2.285156 C 16.828125 2.230469 16.800781 1.964844 16.785156 1.699219 C 16.769531 1.273438 16.753906 1.171875 16.621094 0.910156 C 16.292969 0.230469 15.605469 -0.101562 15.132812 0.1875 Z M 15.917969 0.515625 C 16.097656 0.636719 16.191406 0.742188 16.320312 0.984375 C 16.476562 1.289062 16.488281 1.316406 16.476562 1.765625 C 16.46875 2.203125 16.476562 2.246094 16.613281 2.480469 C 16.695312 2.613281 16.746094 2.753906 16.734375 2.789062 C 16.703125 2.867188 16.34375 3.03125 16.210938 3.035156 C 16.167969 3.035156 16.035156 2.957031 15.921875 2.855469 C 15.664062 2.625 15.550781 2.574219 15.328125 2.574219 C 14.914062 2.570312 14.492188 2.308594 14.257812 1.914062 C 14.097656 1.65625 14.0625 1.339844 14.179688 1.246094 C 14.238281 1.199219 14.273438 1.222656 14.386719 1.367188 C 14.667969 1.730469 14.902344 1.921875 15.121094 1.976562 C 15.308594 2.027344 15.769531 2.015625 15.824219 1.964844 C 15.835938 1.949219 15.847656 1.765625 15.855469 1.554688 C 15.863281 1.167969 15.863281 1.164062 15.667969 0.890625 C 15.5625 0.746094 15.457031 0.585938 15.441406 0.539062 C 15.359375 0.320312 15.59375 0.3125 15.917969 0.515625 Z M 12.652344 2.277344 C 13.882812 2.574219 14.363281 2.917969 14.285156 3.421875 C 14.246094 3.636719 13.980469 4.128906 13.863281 4.203125 C 13.804688 4.238281 13.636719 4.203125 13.214844 4.085938 C 12.292969 3.808594 12.167969 3.796875 10.992188 3.796875 C 9.960938 3.796875 9.886719 3.800781 9.394531 3.921875 C 9.105469 3.996094 8.859375 4.042969 8.847656 4.035156 C 8.835938 4.019531 9.070312 3.753906 9.375 3.4375 C 9.675781 3.117188 9.984375 2.765625 10.0625 2.644531 C 10.214844 2.414062 10.515625 2.238281 10.894531 2.160156 C 11.265625 2.089844 12.113281 2.144531 12.652344 2.277344 Z M 17.175781 2.859375 C 17.238281 2.921875 17.257812 3.183594 17.199219 3.234375 C 17.15625 3.28125 16.945312 3.082031 16.945312 2.988281 C 16.945312 2.917969 17.03125 2.804688 17.089844 2.804688 C 17.101562 2.804688 17.140625 2.828125 17.175781 2.859375 Z M 16.808594 3.246094 C 16.851562 3.273438 16.910156 3.542969 16.875 3.574219 C 16.863281 3.59375 16.804688 3.566406 16.753906 3.519531 C 16.585938 3.371094 16.546875 3.480469 16.609375 3.914062 C 16.679688 4.421875 16.71875 4.507812 16.867188 4.507812 C 16.980469 4.507812 17.183594 4.695312 17.183594 4.800781 C 17.183594 4.828125 17.121094 5.007812 17.039062 5.203125 C 16.964844 5.394531 16.78125 5.984375 16.636719 6.511719 C 16.316406 7.6875 16.257812 7.839844 16.160156 7.855469 C 16.066406 7.875 15.046875 7.46875 14.953125 7.375 C 14.832031 7.261719 14.867188 7.140625 15.222656 6.371094 C 15.402344 5.964844 15.585938 5.550781 15.621094 5.449219 C 15.65625 5.351562 15.734375 5.160156 15.796875 5.035156 C 15.894531 4.839844 15.90625 4.734375 15.910156 4.300781 C 15.910156 3.855469 15.925781 3.765625 16.03125 3.566406 C 16.171875 3.292969 16.402344 3.15625 16.632812 3.203125 C 16.714844 3.21875 16.789062 3.238281 16.808594 3.246094 Z M 17.597656 3.425781 C 17.640625 3.53125 17.582031 3.703125 17.441406 3.859375 C 17.269531 4.058594 17.164062 4.046875 17.199219 3.839844 C 17.257812 3.515625 17.519531 3.238281 17.597656 3.425781 Z M 17.855469 3.886719 C 17.855469 3.980469 17.585938 4.265625 17.539062 4.222656 C 17.5 4.179688 17.742188 3.816406 17.808594 3.816406 C 17.835938 3.816406 17.855469 3.851562 17.855469 3.886719 Z M 18.238281 4.574219 C 18.507812 4.90625 18.839844 5.199219 18.957031 5.199219 C 19.09375 5.199219 19.335938 5.457031 19.371094 5.640625 C 19.464844 6.113281 19.011719 6.519531 18.582031 6.347656 C 18.371094 6.265625 18.292969 6.164062 18.203125 5.832031 C 18.109375 5.519531 17.8125 5.050781 17.472656 4.679688 L 17.269531 4.460938 L 17.480469 4.460938 C 17.59375 4.460938 17.730469 4.429688 17.777344 4.394531 C 17.9375 4.277344 18.027344 4.316406 18.238281 4.574219 Z M 10.363281 4.902344 C 10.785156 4.976562 11.378906 4.972656 11.761719 4.886719 C 11.878906 4.859375 12.378906 4.824219 12.867188 4.808594 L 13.761719 4.769531 L 13.832031 4.949219 C 13.972656 5.28125 14.035156 5.847656 14.035156 6.738281 C 14.035156 7.566406 14.03125 7.625 13.910156 7.921875 C 13.601562 8.6875 13.0625 9.289062 12.382812 9.609375 C 11.816406 9.875 11.398438 9.949219 10.679688 9.917969 C 10.019531 9.890625 9.6875 9.816406 9.128906 9.5625 C 8.390625 9.238281 7.765625 8.722656 7.699219 8.390625 C 7.683594 8.308594 7.695312 8.175781 7.722656 8.097656 C 7.796875 7.890625 7.675781 7.867188 7.464844 8.046875 C 7.367188 8.125 7.238281 8.203125 7.171875 8.214844 C 6.71875 8.324219 6.128906 7.714844 6.0625 7.070312 C 6.042969 6.871094 6.058594 6.804688 6.152344 6.675781 C 6.332031 6.421875 6.496094 6.335938 6.8125 6.3125 C 7.078125 6.292969 7.109375 6.300781 7.246094 6.429688 C 7.324219 6.507812 7.390625 6.613281 7.390625 6.664062 C 7.390625 6.757812 7.386719 6.753906 7.214844 6.640625 C 7.0625 6.542969 6.992188 6.527344 6.773438 6.546875 C 6.5625 6.558594 6.488281 6.585938 6.398438 6.691406 C 6.230469 6.878906 6.316406 6.941406 6.609375 6.839844 C 6.738281 6.796875 6.867188 6.761719 6.902344 6.761719 C 7.007812 6.761719 6.964844 6.890625 6.855469 6.910156 C 6.742188 6.921875 6.691406 7.039062 6.738281 7.15625 C 6.761719 7.210938 6.789062 7.210938 6.929688 7.144531 C 7.070312 7.085938 7.113281 7.078125 7.175781 7.128906 C 7.28125 7.210938 7.265625 7.371094 7.128906 7.5625 C 6.988281 7.753906 6.972656 7.867188 7.078125 7.867188 C 7.277344 7.867188 7.488281 7.480469 7.488281 7.117188 C 7.488281 6.921875 7.558594 6.886719 7.601562 7.054688 C 7.640625 7.207031 8.054688 7.554688 8.179688 7.535156 C 8.273438 7.519531 8.28125 7.496094 8.257812 7.175781 C 8.207031 6.507812 8.230469 5.273438 8.292969 5.101562 L 8.351562 4.9375 L 8.890625 4.890625 C 9.28125 4.859375 9.441406 4.824219 9.476562 4.773438 C 9.519531 4.710938 9.546875 4.710938 9.738281 4.769531 C 9.859375 4.808594 10.140625 4.867188 10.363281 4.902344 Z M 15.644531 7.960938 C 16.191406 8.242188 16.527344 8.464844 16.632812 8.621094 C 16.703125 8.726562 16.703125 8.75 16.601562 8.964844 C 16.546875 9.09375 16.488281 9.199219 16.472656 9.199219 C 16.460938 9.199219 16.230469 9.074219 15.964844 8.925781 C 15.695312 8.777344 15.289062 8.570312 15.046875 8.464844 C 14.207031 8.101562 14.183594 8.085938 14.167969 7.929688 C 14.160156 7.847656 14.183594 7.710938 14.226562 7.621094 L 14.292969 7.460938 L 14.734375 7.589844 C 14.976562 7.664062 15.382812 7.828125 15.644531 7.960938 Z M 14.996094 8.710938 C 15.726562 9.058594 15.984375 9.261719 15.984375 9.496094 C 15.984375 9.785156 15.140625 11.300781 14.769531 11.671875 C 14.605469 11.835938 14.542969 11.859375 14.542969 11.753906 C 14.542969 11.652344 14.117188 10.894531 13.796875 10.417969 C 13.527344 10.023438 13.34375 9.613281 13.34375 9.410156 C 13.34375 9.355469 13.421875 9.222656 13.515625 9.109375 C 13.613281 8.992188 13.742188 8.8125 13.808594 8.703125 C 14.039062 8.332031 14.179688 8.332031 14.996094 8.710938 Z M 13.097656 9.695312 C 13.191406 9.859375 13.214844 10.316406 13.136719 10.414062 C 13.070312 10.496094 13.0625 10.5 12.957031 10.433594 C 12.78125 10.328125 12.382812 9.976562 12.382812 9.941406 C 12.382812 9.902344 12.945312 9.613281 13.011719 9.613281 C 13.035156 9.613281 13.074219 9.652344 13.097656 9.695312 Z M 8.734375 9.851562 C 9.128906 10.128906 9.585938 10.882812 9.726562 11.492188 C 9.835938 11.960938 9.796875 12.519531 9.644531 12.792969 C 9.511719 13.023438 9.125 13.320312 8.878906 13.386719 C 8.542969 13.476562 8.0625 13.421875 8.0625 13.292969 C 8.0625 13.269531 8.140625 13.214844 8.230469 13.175781 C 8.71875 12.957031 9.425781 11.804688 9.039062 11.878906 C 8.992188 11.886719 8.898438 11.996094 8.828125 12.121094 C 8.636719 12.464844 7.71875 13.207031 7.488281 13.199219 C 7.449219 13.199219 7.074219 12.816406 6.65625 12.347656 C 6.042969 11.65625 5.902344 11.476562 5.933594 11.398438 C 6.027344 11.109375 7.117188 10.285156 7.875 9.9375 C 8.328125 9.730469 8.535156 9.707031 8.734375 9.851562 Z M 11.441406 10.203125 C 11.480469 10.261719 11.273438 10.753906 11.203125 10.78125 C 11.140625 10.804688 10.691406 10.472656 10.492188 10.261719 L 10.402344 10.164062 L 10.910156 10.164062 C 11.1875 10.164062 11.429688 10.183594 11.441406 10.203125 Z M 12.332031 10.277344 C 12.46875 10.34375 12.796875 10.667969 12.9375 10.875 C 13.003906 10.976562 13.046875 10.992188 13.148438 10.972656 C 13.308594 10.9375 13.429688 11.054688 13.636719 11.449219 C 13.746094 11.664062 13.777344 11.765625 13.742188 11.816406 C 13.660156 11.941406 13.042969 12.140625 12.566406 12.191406 C 12.320312 12.21875 11.832031 12.234375 11.476562 12.226562 L 10.832031 12.214844 L 10.675781 11.613281 C 10.589844 11.285156 10.484375 10.925781 10.445312 10.816406 C 10.355469 10.574219 10.355469 10.578125 10.425781 10.578125 C 10.453125 10.578125 10.636719 10.726562 10.828125 10.90625 C 11.285156 11.324219 11.363281 11.324219 11.472656 10.898438 C 11.546875 10.59375 11.664062 10.371094 11.804688 10.273438 C 11.910156 10.195312 12.167969 10.199219 12.332031 10.277344 Z M 5.886719 11.832031 C 6.296875 12.296875 7.085938 13.265625 7.152344 13.390625 C 7.28125 13.621094 6.992188 13.617188 6.609375 13.375 C 6.464844 13.289062 6.191406 13.027344 5.933594 12.722656 C 5.332031 12.027344 5.230469 11.894531 5.230469 11.800781 C 5.230469 11.714844 5.453125 11.453125 5.519531 11.453125 C 5.539062 11.453125 5.703125 11.625 5.886719 11.832031 Z M 13.953125 12.378906 C 14.03125 12.621094 14.121094 12.695312 14.355469 12.695312 C 14.519531 12.695312 14.539062 12.714844 14.636719 12.90625 C 14.832031 13.304688 15.128906 14.792969 15.113281 15.285156 C 15.109375 15.453125 15.128906 15.523438 14.902344 14.578125 C 14.703125 13.75 14.457031 13.292969 14.179688 13.230469 C 13.847656 13.148438 13.585938 12.8125 13.585938 12.46875 C 13.585938 12.332031 13.613281 12.269531 13.691406 12.21875 C 13.839844 12.117188 13.886719 12.144531 13.953125 12.378906 Z M 5.386719 12.5 C 5.5625 12.683594 5.808594 13.023438 5.808594 13.085938 C 5.808594 13.113281 5.65625 13.160156 5.441406 13.1875 C 4.820312 13.277344 4.894531 13.363281 5.644531 13.421875 C 6.570312 13.5 6.8125 13.703125 7.296875 14.820312 C 7.378906 15.019531 7.554688 15.34375 7.691406 15.558594 C 8.097656 16.203125 8.175781 16.496094 7.859375 16.203125 C 7.769531 16.117188 7.683594 16.054688 7.664062 16.054688 C 7.609375 16.054688 7.628906 16.203125 7.726562 16.507812 C 7.78125 16.671875 7.8125 16.8125 7.800781 16.828125 C 7.785156 16.839844 7.71875 16.804688 7.652344 16.738281 L 7.53125 16.628906 L 7.445312 16.734375 C 7.371094 16.832031 7.355469 16.835938 7.300781 16.773438 C 7.265625 16.730469 7.21875 16.542969 7.195312 16.347656 C 7.167969 16.109375 7.117188 15.945312 7.046875 15.835938 C 6.984375 15.75 6.625 15.4375 6.246094 15.144531 C 4.59375 13.878906 4.34375 13.414062 4.875 12.617188 C 5.0625 12.332031 5.195312 12.304688 5.386719 12.5 Z M 7.460938 13.929688 C 7.496094 13.988281 7.40625 14.089844 7.347656 14.058594 C 7.273438 14.011719 7.28125 13.890625 7.363281 13.890625 C 7.402344 13.890625 7.445312 13.910156 7.460938 13.929688 Z M 14.832031 17.871094 C 14.902344 17.953125 15.070312 18.96875 15.070312 19.332031 C 15.070312 19.847656 14.910156 20.015625 14.136719 20.269531 C 13.796875 20.378906 13.679688 20.394531 13.128906 20.394531 C 12.632812 20.402344 12.457031 20.382812 12.277344 20.316406 C 12.148438 20.273438 12.046875 20.207031 12.046875 20.179688 C 12.046875 20.152344 12.101562 20.003906 12.167969 19.847656 C 12.230469 19.691406 12.316406 19.390625 12.355469 19.171875 C 12.476562 18.527344 12.488281 18.515625 13.117188 18.378906 C 13.484375 18.292969 13.882812 18.15625 14.351562 17.945312 C 14.710938 17.785156 14.75 17.777344 14.832031 17.871094 Z M 8.539062 18.234375 C 9.757812 18.523438 10.347656 18.601562 11.269531 18.601562 L 12.105469 18.601562 L 12.070312 18.953125 C 11.996094 19.832031 11.691406 20.234375 10.96875 20.445312 C 10.65625 20.539062 10.007812 20.539062 9.121094 20.445312 C 7.828125 20.316406 7.636719 20.285156 7.496094 20.171875 C 7.378906 20.070312 7.367188 20.042969 7.371094 19.679688 C 7.378906 19.261719 7.515625 18.289062 7.589844 18.160156 C 7.652344 18.046875 7.769531 18.054688 8.539062 18.234375 Z M 14.496094 20.558594 C 14.519531 20.609375 14.542969 20.710938 14.542969 20.78125 C 14.542969 21.125 14.101562 21.335938 13.316406 21.375 C 12.757812 21.410156 12.761719 21.414062 12.679688 20.988281 L 12.636719 20.75 L 12.835938 20.726562 C 13.617188 20.640625 13.886719 20.597656 14.050781 20.539062 C 14.304688 20.453125 14.4375 20.457031 14.496094 20.558594 Z M 9.585938 20.746094 C 10.386719 20.839844 10.558594 20.882812 10.558594 21.003906 C 10.558594 21.246094 10.273438 21.480469 9.972656 21.480469 C 9.574219 21.480469 8.972656 21.257812 8.703125 21.007812 C 8.523438 20.847656 8.503906 20.773438 8.628906 20.703125 C 8.734375 20.644531 8.679688 20.640625 9.585938 20.746094 Z M 16.046875 21.027344 C 16.246094 21.113281 16.214844 21.238281 15.972656 21.300781 C 15.753906 21.359375 15.164062 21.324219 15.015625 21.246094 C 14.617188 21.039062 15.601562 20.828125 16.046875 21.027344 Z M 8.199219 21.09375 C 8.34375 21.1875 8.3125 21.261719 8.105469 21.332031 C 7.65625 21.480469 6.878906 21.3125 7.125 21.117188 C 7.304688 20.972656 7.976562 20.957031 8.199219 21.09375 Z M 8.199219 21.09375 "/>
<path style=" stroke:none;fill-rule:nonzero;fill:rgb(0%,0%,0%);fill-opacity:1;" d="M 18.582031 5.59375 C 18.457031 5.75 18.453125 5.90625 18.574219 6.027344 C 18.671875 6.117188 18.886719 6.144531 18.988281 6.082031 C 19.078125 6.019531 19.152344 5.851562 19.117188 5.765625 C 19.066406 5.621094 18.898438 5.472656 18.789062 5.472656 C 18.730469 5.472656 18.632812 5.527344 18.582031 5.59375 Z M 18.582031 5.59375 "/>
<path style=" stroke:none;fill-rule:nonzero;fill:rgb(0%,0%,0%);fill-opacity:1;" d="M 12.832031 5.273438 C 12.796875 5.363281 12.929688 5.472656 13.078125 5.472656 C 13.132812 5.472656 13.230469 5.507812 13.285156 5.546875 C 13.382812 5.613281 13.398438 5.613281 13.421875 5.542969 C 13.460938 5.449219 13.359375 5.335938 13.167969 5.257812 C 12.960938 5.179688 12.867188 5.179688 12.832031 5.273438 Z M 12.832031 5.273438 "/>
<path style=" stroke:none;fill-rule:nonzero;fill:rgb(0%,0%,0%);fill-opacity:1;" d="M 9.753906 5.363281 C 9.65625 5.421875 9.59375 5.644531 9.6875 5.601562 C 9.757812 5.566406 10.0625 5.441406 10.140625 5.414062 C 10.1875 5.394531 10.222656 5.363281 10.222656 5.335938 C 10.222656 5.261719 9.875 5.28125 9.753906 5.363281 Z M 9.753906 5.363281 "/>
<path style=" stroke:none;fill-rule:nonzero;fill:rgb(0%,0%,0%);fill-opacity:1;" d="M 10.132812 5.714844 C 9.972656 5.796875 9.957031 5.878906 10.089844 5.898438 C 10.179688 5.90625 10.199219 5.9375 10.199219 6.070312 C 10.199219 6.269531 10.078125 6.304688 9.882812 6.167969 C 9.757812 6.082031 9.738281 6.078125 9.710938 6.140625 C 9.667969 6.261719 9.78125 6.5625 9.917969 6.664062 C 10.308594 6.960938 10.824219 6.820312 10.921875 6.394531 C 11.015625 5.972656 10.503906 5.523438 10.132812 5.714844 Z M 10.132812 5.714844 "/>
<path style=" stroke:none;fill-rule:nonzero;fill:rgb(0%,0%,0%);fill-opacity:1;" d="M 12.527344 5.703125 C 12.527344 5.726562 12.546875 5.75 12.574219 5.75 C 12.664062 5.75 12.761719 6 12.714844 6.085938 C 12.652344 6.191406 12.519531 6.183594 12.359375 6.066406 C 12.253906 5.984375 12.222656 5.976562 12.1875 6.03125 C 12.015625 6.292969 12.359375 6.808594 12.710938 6.808594 C 13.042969 6.808594 13.34375 6.503906 13.34375 6.183594 C 13.34375 5.960938 13.238281 5.804688 13.027344 5.722656 C 12.839844 5.648438 12.527344 5.636719 12.527344 5.703125 Z M 12.527344 5.703125 "/>
<path style=" stroke:none;fill-rule:nonzero;fill:rgb(0%,0%,0%);fill-opacity:1;" d="M 11.902344 6.796875 C 11.902344 6.847656 11.9375 6.964844 11.980469 7.0625 C 12.019531 7.152344 12.046875 7.285156 12.039062 7.355469 C 12.027344 7.449219 12.042969 7.476562 12.121094 7.476562 C 12.207031 7.476562 12.214844 7.441406 12.214844 7.234375 C 12.210938 7.066406 12.183594 6.957031 12.113281 6.867188 C 11.992188 6.710938 11.902344 6.683594 11.902344 6.796875 Z M 11.902344 6.796875 "/>
<path style=" stroke:none;fill-rule:nonzero;fill:rgb(0%,0%,0%);fill-opacity:1;" d="M 10.589844 7.675781 C 10.53125 7.765625 10.617188 7.945312 10.789062 8.109375 C 11.101562 8.402344 11.574219 8.523438 11.855469 8.386719 C 11.945312 8.339844 12.015625 8.285156 12 8.257812 C 11.984375 8.234375 11.824219 8.21875 11.636719 8.230469 C 11.230469 8.242188 11.050781 8.175781 10.902344 7.945312 C 10.769531 7.742188 10.628906 7.617188 10.589844 7.675781 Z M 10.589844 7.675781 "/>
</g>
</svg>
