<?xml version="1.0" encoding="UTF-8"?>
<svg xmlns="http://www.w3.org/2000/svg" xmlns:xlink="http://www.w3.org/1999/xlink" width="16px" height="16px" viewBox="0 0 16 16" version="1.1">
<g id="surface1">
<path style=" stroke:none;fill-rule:nonzero;fill:rgb(0%,0%,0%);fill-opacity:1;" d="M 10.863281 1.046875 C 10.59375 1.191406 10.59375 1.265625 10.878906 1.703125 C 11.238281 2.246094 11.257812 2.398438 10.988281 2.445312 C 10.769531 2.488281 10.703125 2.449219 10.492188 2.152344 C 10.128906 1.636719 10.042969 1.585938 9.820312 1.738281 C 9.667969 1.839844 9.585938 2.023438 9.585938 2.257812 C 9.589844 2.496094 9.664062 2.664062 9.941406 3.082031 C 10.195312 3.457031 10.265625 3.5 10.738281 3.585938 C 11.113281 3.652344 11.214844 3.691406 11.308594 3.816406 L 11.371094 3.902344 L 11.300781 4.121094 C 11.246094 4.28125 11.21875 4.453125 11.199219 4.816406 C 11.167969 5.386719 11.117188 5.558594 10.660156 6.601562 C 10.503906 6.957031 10.359375 7.300781 10.339844 7.367188 C 10.242188 7.664062 10.179688 7.511719 10.140625 6.886719 C 10.109375 6.34375 10.042969 5.839844 9.957031 5.40625 L 9.902344 5.136719 L 10.058594 4.855469 C 10.257812 4.488281 10.335938 4.257812 10.335938 4.023438 C 10.335938 3.769531 10.253906 3.597656 10.039062 3.40625 C 9.636719 3.042969 8.328125 2.574219 7.292969 2.414062 C 6.902344 2.355469 6.175781 2.347656 5.792969 2.398438 C 4.765625 2.535156 3.265625 3.195312 2.886719 3.671875 C 2.746094 3.851562 2.632812 4.09375 2.59375 4.3125 C 2.527344 4.640625 2.570312 5.363281 2.683594 5.921875 C 2.804688 6.503906 2.804688 6.539062 2.6875 6.6875 C 2.515625 6.90625 2.453125 7.089844 2.457031 7.375 C 2.460938 8.105469 2.988281 8.789062 3.597656 8.855469 C 3.90625 8.886719 3.953125 8.910156 4.238281 9.257812 C 4.390625 9.4375 4.511719 9.605469 4.511719 9.636719 C 4.511719 9.671875 4.414062 9.742188 4.234375 9.84375 C 3.65625 10.152344 3.183594 10.480469 2.726562 10.894531 C 2.558594 11.039062 2.453125 11.105469 2.375 11.125 C 2.210938 11.152344 2.085938 11.230469 1.898438 11.433594 C 1.691406 11.652344 1.628906 11.777344 1.621094 11.984375 C 1.613281 12.105469 1.585938 12.195312 1.511719 12.324219 C 1.453125 12.417969 1.355469 12.605469 1.289062 12.734375 C 1.183594 12.945312 1.167969 13.003906 1.167969 13.214844 C 1.167969 13.433594 1.179688 13.484375 1.292969 13.710938 C 1.398438 13.925781 1.480469 14.027344 1.789062 14.335938 C 1.992188 14.539062 2.253906 14.773438 2.363281 14.859375 C 2.558594 15 2.574219 15.007812 2.773438 15.007812 L 2.984375 15.007812 L 2.699219 14.78125 C 2.039062 14.257812 1.660156 13.847656 1.53125 13.53125 C 1.4375 13.296875 1.453125 13.050781 1.585938 12.785156 C 1.722656 12.503906 1.886719 12.335938 1.976562 12.367188 C 2.085938 12.398438 2.527344 12.945312 2.527344 13.042969 C 2.527344 13.0625 2.414062 13.09375 2.253906 13.117188 C 1.957031 13.160156 1.824219 13.195312 1.824219 13.246094 C 1.824219 13.296875 1.929688 13.316406 2.355469 13.34375 C 2.710938 13.367188 2.804688 13.382812 2.972656 13.457031 C 3.308594 13.609375 3.566406 13.949219 3.789062 14.539062 C 3.832031 14.648438 3.894531 14.800781 3.933594 14.875 L 4 15.007812 L 10.722656 15.007812 L 10.699219 14.890625 C 10.660156 14.652344 10.46875 13.933594 10.402344 13.761719 C 10.367188 13.660156 10.292969 13.503906 10.234375 13.40625 C 10.140625 13.257812 10.105469 13.226562 9.9375 13.160156 C 9.710938 13.074219 9.589844 12.964844 9.484375 12.761719 C 9.382812 12.558594 9.382812 12.375 9.488281 12.269531 C 9.621094 12.136719 9.703125 12.171875 9.753906 12.382812 C 9.804688 12.605469 9.882812 12.671875 10.078125 12.671875 C 10.269531 12.671875 10.308594 12.71875 10.417969 13.027344 C 10.5625 13.449219 10.683594 14.078125 10.769531 14.824219 L 10.789062 15.007812 L 11.105469 15.007812 L 11.089844 14.886719 C 11.078125 14.824219 11.050781 14.59375 11.019531 14.382812 C 10.949219 13.832031 10.832031 13.246094 10.703125 12.8125 C 10.542969 12.269531 10.546875 12.230469 10.804688 11.867188 C 11.210938 11.292969 11.683594 10.457031 11.808594 10.097656 C 11.859375 9.945312 11.867188 9.9375 12 9.914062 C 12.210938 9.878906 12.351562 9.710938 12.433594 9.398438 C 12.535156 9.027344 12.46875 8.765625 12.222656 8.542969 L 12.0625 8.398438 L 12.289062 7.519531 C 12.644531 6.121094 12.753906 5.761719 12.808594 5.761719 C 12.859375 5.761719 13.019531 5.925781 13.101562 6.0625 C 13.132812 6.109375 13.171875 6.234375 13.183594 6.335938 C 13.230469 6.664062 13.371094 6.871094 13.644531 7.019531 C 13.75 7.074219 13.828125 7.089844 14.0625 7.089844 C 14.378906 7.089844 14.476562 7.054688 14.652344 6.875 C 14.804688 6.730469 14.855469 6.601562 14.875 6.363281 C 14.898438 5.980469 14.726562 5.6875 14.371094 5.503906 C 14.167969 5.40625 13.832031 5.070312 13.65625 4.800781 C 13.589844 4.699219 13.511719 4.535156 13.488281 4.433594 C 13.417969 4.164062 13.292969 3.914062 13.152344 3.777344 C 13.089844 3.714844 12.988281 3.597656 12.933594 3.511719 C 12.859375 3.402344 12.773438 3.335938 12.609375 3.246094 C 12.292969 3.082031 12.277344 3.050781 12.253906 2.496094 C 12.238281 2.238281 12.21875 1.988281 12.203125 1.9375 C 12.082031 1.574219 11.785156 1.207031 11.5 1.070312 C 11.300781 0.976562 11.015625 0.964844 10.863281 1.046875 Z M 11.375 1.308594 C 11.636719 1.429688 11.886719 1.777344 11.96875 2.128906 C 11.988281 2.210938 12 2.441406 11.996094 2.640625 L 11.992188 3 L 12.105469 3.210938 C 12.265625 3.492188 12.257812 3.539062 12.074219 3.621094 C 11.992188 3.65625 11.871094 3.695312 11.808594 3.703125 C 11.699219 3.71875 11.671875 3.703125 11.511719 3.558594 C 11.273438 3.34375 11.195312 3.308594 10.929688 3.289062 C 10.773438 3.277344 10.652344 3.246094 10.542969 3.195312 C 10.347656 3.09375 10.039062 2.773438 9.953125 2.585938 C 9.847656 2.363281 9.878906 2.046875 10 2.046875 C 10.027344 2.046875 10.121094 2.152344 10.21875 2.28125 C 10.433594 2.574219 10.554688 2.675781 10.757812 2.734375 C 10.9375 2.789062 11.050781 2.792969 11.273438 2.765625 L 11.417969 2.746094 L 11.441406 2.453125 C 11.46875 2.078125 11.4375 1.960938 11.230469 1.683594 C 11.085938 1.476562 11.035156 1.328125 11.09375 1.269531 C 11.128906 1.230469 11.246094 1.246094 11.375 1.308594 Z M 8.179688 2.929688 C 8.945312 3.058594 9.636719 3.332031 9.878906 3.589844 C 10.097656 3.828125 10.097656 4.0625 9.902344 4.484375 C 9.761719 4.769531 9.710938 4.832031 9.605469 4.832031 C 9.5625 4.832031 9.359375 4.773438 9.15625 4.707031 C 8.027344 4.328125 6.554688 4.28125 5.53125 4.59375 C 5.375 4.644531 5.238281 4.671875 5.230469 4.664062 C 5.195312 4.628906 5.28125 4.523438 5.710938 4.0625 C 5.9375 3.828125 6.179688 3.539062 6.257812 3.425781 C 6.417969 3.175781 6.464844 3.136719 6.652344 3.039062 C 6.964844 2.882812 7.628906 2.835938 8.179688 2.929688 Z M 12.621094 3.589844 C 12.6875 3.683594 12.6875 3.867188 12.621094 3.894531 C 12.570312 3.914062 12.382812 3.761719 12.382812 3.695312 C 12.382812 3.636719 12.480469 3.519531 12.527344 3.519531 C 12.554688 3.519531 12.59375 3.550781 12.621094 3.589844 Z M 12.273438 3.953125 C 12.332031 4.007812 12.351562 4.0625 12.351562 4.164062 L 12.351562 4.300781 L 12.261719 4.214844 C 12.160156 4.113281 12.0625 4.101562 12.0625 4.183594 C 12.066406 4.214844 12.09375 4.417969 12.125 4.632812 C 12.183594 5.039062 12.203125 5.089844 12.339844 5.089844 C 12.445312 5.089844 12.574219 5.207031 12.59375 5.324219 C 12.609375 5.398438 12.589844 5.484375 12.535156 5.621094 C 12.414062 5.90625 12.308594 6.261719 12.144531 6.894531 C 11.929688 7.730469 11.808594 8.136719 11.761719 8.1875 C 11.71875 8.234375 11.570312 8.183594 11.011719 7.9375 C 10.683594 7.796875 10.558594 7.707031 10.558594 7.605469 C 10.558594 7.542969 11.074219 6.308594 11.15625 6.1875 C 11.179688 6.148438 11.199219 6.089844 11.199219 6.0625 C 11.199219 6.03125 11.265625 5.859375 11.34375 5.675781 L 11.488281 5.347656 L 11.488281 4.921875 C 11.488281 4.449219 11.511719 4.335938 11.640625 4.125 C 11.800781 3.878906 12.113281 3.789062 12.273438 3.953125 Z M 12.992188 4.148438 C 12.992188 4.355469 12.769531 4.664062 12.652344 4.617188 C 12.582031 4.59375 12.597656 4.476562 12.707031 4.257812 C 12.84375 3.984375 12.992188 3.925781 12.992188 4.148438 Z M 13.230469 4.480469 C 13.253906 4.519531 13.066406 4.789062 12.996094 4.816406 C 12.886719 4.859375 12.921875 4.726562 13.070312 4.550781 C 13.160156 4.441406 13.199219 4.425781 13.230469 4.480469 Z M 13.339844 4.925781 C 13.371094 4.945312 13.515625 5.101562 13.660156 5.277344 C 13.921875 5.59375 14.078125 5.726562 14.191406 5.726562 C 14.285156 5.726562 14.46875 5.886719 14.519531 6.007812 C 14.679688 6.402344 14.433594 6.824219 14.035156 6.824219 C 13.761719 6.824219 13.589844 6.664062 13.535156 6.363281 C 13.480469 6.074219 13.207031 5.613281 12.859375 5.230469 C 12.773438 5.140625 12.703125 5.054688 12.703125 5.050781 C 12.703125 5.042969 12.789062 5.035156 12.890625 5.039062 C 13.035156 5.039062 13.09375 5.023438 13.164062 4.964844 C 13.269531 4.886719 13.265625 4.886719 13.339844 4.925781 Z M 6.1875 5.371094 C 6.558594 5.476562 7.160156 5.546875 7.410156 5.515625 C 7.496094 5.507812 7.632812 5.476562 7.707031 5.449219 C 7.800781 5.421875 8.113281 5.394531 8.589844 5.375 C 8.996094 5.355469 9.371094 5.335938 9.429688 5.332031 C 9.566406 5.3125 9.621094 5.378906 9.691406 5.667969 C 9.882812 6.398438 9.902344 7.707031 9.730469 8.199219 C 9.390625 9.191406 8.632812 9.867188 7.648438 10.0625 C 7.28125 10.136719 6.492188 10.117188 6.144531 10.023438 C 5.386719 9.820312 4.65625 9.386719 4.332031 8.949219 C 4.164062 8.71875 4.136719 8.617188 4.210938 8.429688 C 4.277344 8.25 4.242188 8.195312 4.109375 8.269531 C 4.058594 8.292969 3.980469 8.355469 3.9375 8.402344 C 3.785156 8.566406 3.613281 8.585938 3.371094 8.460938 C 3.167969 8.363281 3.007812 8.191406 2.886719 7.945312 C 2.773438 7.726562 2.753906 7.625 2.75 7.386719 C 2.746094 7.109375 2.859375 6.945312 3.136719 6.820312 C 3.484375 6.664062 3.867188 6.78125 3.921875 7.070312 L 3.945312 7.171875 L 3.785156 7.070312 C 3.601562 6.957031 3.355469 6.9375 3.160156 7.019531 C 3.027344 7.074219 2.925781 7.230469 2.984375 7.292969 C 3.035156 7.34375 3.097656 7.335938 3.214844 7.265625 C 3.347656 7.183594 3.53125 7.164062 3.542969 7.230469 C 3.550781 7.265625 3.515625 7.292969 3.449219 7.3125 C 3.363281 7.335938 3.339844 7.359375 3.335938 7.449219 C 3.320312 7.578125 3.386719 7.609375 3.511719 7.53125 C 3.636719 7.460938 3.761719 7.492188 3.789062 7.59375 C 3.8125 7.699219 3.761719 7.867188 3.667969 7.964844 C 3.566406 8.070312 3.546875 8.167969 3.625 8.1875 C 3.792969 8.222656 3.957031 7.957031 4 7.597656 C 4.011719 7.460938 4.03125 7.351562 4.039062 7.339844 C 4.046875 7.335938 4.078125 7.386719 4.113281 7.460938 C 4.1875 7.621094 4.449219 7.859375 4.582031 7.886719 C 4.703125 7.917969 4.742188 7.867188 4.722656 7.710938 C 4.714844 7.652344 4.691406 7.371094 4.667969 7.097656 C 4.628906 6.574219 4.664062 5.847656 4.734375 5.597656 L 4.769531 5.476562 L 5.082031 5.460938 C 5.582031 5.425781 5.699219 5.40625 5.757812 5.34375 C 5.785156 5.3125 5.816406 5.28125 5.832031 5.28125 C 5.84375 5.28125 6.007812 5.320312 6.1875 5.371094 Z M 11.046875 8.175781 C 11.453125 8.382812 11.878906 8.644531 12.023438 8.777344 C 12.128906 8.875 12.160156 8.929688 12.160156 9.003906 C 12.160156 9.117188 12.035156 9.441406 11.992188 9.441406 C 11.972656 9.441406 11.824219 9.355469 11.652344 9.253906 C 11.210938 8.980469 10.902344 8.820312 10.59375 8.6875 C 9.855469 8.375 9.84375 8.363281 9.988281 7.992188 L 10.054688 7.816406 L 10.433594 7.9375 C 10.640625 8.003906 10.917969 8.113281 11.046875 8.175781 Z M 10.632812 8.964844 C 11.222656 9.257812 11.457031 9.417969 11.53125 9.582031 C 11.601562 9.726562 11.585938 9.777344 11.324219 10.320312 C 10.964844 11.0625 10.621094 11.621094 10.390625 11.832031 L 10.308594 11.910156 L 10.273438 11.785156 C 10.203125 11.578125 9.882812 10.980469 9.605469 10.554688 C 9.367188 10.1875 9.183594 9.777344 9.183594 9.621094 C 9.183594 9.59375 9.234375 9.511719 9.300781 9.433594 C 9.367188 9.359375 9.496094 9.175781 9.589844 9.035156 C 9.6875 8.886719 9.789062 8.753906 9.816406 8.738281 C 9.953125 8.660156 10.105469 8.699219 10.632812 8.964844 Z M 8.996094 9.894531 C 9.019531 9.9375 9.039062 10.109375 9.050781 10.277344 C 9.066406 10.628906 9.042969 10.667969 8.867188 10.578125 C 8.707031 10.496094 8.34375 10.136719 8.378906 10.101562 C 8.441406 10.042969 8.847656 9.824219 8.902344 9.824219 C 8.933594 9.824219 8.976562 9.855469 8.996094 9.894531 Z M 5.117188 10.042969 C 5.308594 10.195312 5.585938 10.550781 5.722656 10.808594 C 5.929688 11.210938 6.023438 11.546875 6.042969 11.960938 C 6.0625 12.398438 6.011719 12.65625 5.875 12.859375 C 5.761719 13.019531 5.441406 13.261719 5.257812 13.308594 C 5.085938 13.355469 4.632812 13.355469 4.5625 13.300781 C 4.5 13.253906 4.523438 13.152344 4.605469 13.152344 C 4.820312 13.148438 5.503906 12.285156 5.503906 12.011719 C 5.503906 11.847656 5.261719 11.921875 5.226562 12.097656 C 5.191406 12.285156 4.675781 12.769531 4.214844 13.054688 C 4 13.183594 3.992188 13.183594 3.941406 13.125 C 3.914062 13.089844 3.65625 12.789062 3.371094 12.460938 C 3.089844 12.128906 2.796875 11.792969 2.722656 11.710938 C 2.648438 11.636719 2.59375 11.5625 2.59375 11.550781 C 2.59375 11.484375 2.8125 11.210938 3.015625 11.027344 C 3.457031 10.628906 4.023438 10.257812 4.535156 10.027344 C 4.824219 9.898438 4.945312 9.902344 5.117188 10.042969 Z M 7.53125 10.363281 C 7.558594 10.402344 7.371094 10.859375 7.320312 10.894531 C 7.257812 10.929688 7.117188 10.835938 6.800781 10.542969 L 6.574219 10.339844 L 7.046875 10.335938 C 7.304688 10.335938 7.523438 10.347656 7.53125 10.363281 Z M 8.273438 10.417969 C 8.378906 10.46875 8.710938 10.796875 8.867188 11.007812 C 8.945312 11.109375 8.957031 11.117188 9.035156 11.082031 C 9.105469 11.046875 9.128906 11.054688 9.214844 11.125 C 9.347656 11.234375 9.621094 11.796875 9.578125 11.867188 C 9.5625 11.894531 9.453125 11.957031 9.335938 12.007812 C 8.917969 12.183594 8.8125 12.199219 7.871094 12.222656 C 7.390625 12.238281 6.984375 12.238281 6.980469 12.238281 C 6.972656 12.230469 6.929688 12.046875 6.875 11.832031 C 6.828125 11.617188 6.734375 11.277344 6.675781 11.085938 C 6.609375 10.890625 6.558594 10.71875 6.558594 10.710938 C 6.558594 10.644531 6.660156 10.71875 6.945312 10.992188 C 7.253906 11.28125 7.394531 11.371094 7.457031 11.308594 C 7.472656 11.292969 7.507812 11.175781 7.535156 11.042969 C 7.65625 10.484375 7.921875 10.253906 8.273438 10.417969 Z M 2.484375 11.753906 C 3.09375 12.46875 3.742188 13.320312 3.742188 13.410156 C 3.742188 13.566406 3.339844 13.425781 3.058594 13.179688 C 2.832031 12.980469 1.984375 11.9375 1.984375 11.855469 C 1.984375 11.804688 2.21875 11.519531 2.257812 11.523438 C 2.273438 11.523438 2.378906 11.628906 2.484375 11.753906 Z M 3.964844 13.816406 C 4.003906 13.890625 3.957031 13.96875 3.890625 13.941406 C 3.8125 13.910156 3.828125 13.761719 3.90625 13.761719 C 3.921875 13.761719 3.949219 13.785156 3.964844 13.816406 Z M 3.964844 13.816406 "/>
<path style=" stroke:none;fill-rule:nonzero;fill:rgb(0%,0%,0%);fill-opacity:1;" d="M 13.859375 6.097656 C 13.679688 6.300781 13.769531 6.546875 14.03125 6.582031 C 14.320312 6.621094 14.441406 6.332031 14.238281 6.097656 C 14.167969 6.019531 14.109375 5.984375 14.046875 5.984375 C 13.988281 5.984375 13.929688 6.019531 13.859375 6.097656 Z M 13.859375 6.097656 "/>
<path style=" stroke:none;fill-rule:nonzero;fill:rgb(0%,0%,0%);fill-opacity:1;" d="M 8.769531 5.777344 C 8.699219 5.855469 8.765625 5.929688 8.929688 5.960938 C 9.007812 5.976562 9.09375 6.007812 9.125 6.035156 C 9.203125 6.109375 9.28125 6.089844 9.28125 6 C 9.28125 5.839844 8.867188 5.65625 8.769531 5.777344 Z M 8.769531 5.777344 "/>
<path style=" stroke:none;fill-rule:nonzero;fill:rgb(0%,0%,0%);fill-opacity:1;" d="M 6.113281 5.828125 C 5.988281 5.878906 5.921875 5.957031 5.921875 6.050781 L 5.921875 6.140625 L 6.105469 6.046875 C 6.203125 5.996094 6.328125 5.9375 6.378906 5.921875 C 6.453125 5.890625 6.464844 5.878906 6.433594 5.839844 C 6.386719 5.785156 6.230469 5.777344 6.113281 5.828125 Z M 6.113281 5.828125 "/>
<path style=" stroke:none;fill-rule:nonzero;fill:rgb(0%,0%,0%);fill-opacity:1;" d="M 6.414062 6.175781 C 6.359375 6.195312 6.289062 6.238281 6.257812 6.273438 C 6.199219 6.332031 6.203125 6.335938 6.300781 6.355469 C 6.453125 6.386719 6.519531 6.5625 6.414062 6.667969 C 6.34375 6.742188 6.257812 6.734375 6.152344 6.640625 C 6.003906 6.519531 5.972656 6.535156 5.992188 6.730469 C 6.015625 7.050781 6.269531 7.253906 6.605469 7.226562 C 6.804688 7.210938 6.921875 7.132812 7.007812 6.957031 C 7.09375 6.785156 7.089844 6.667969 6.988281 6.46875 C 6.867188 6.222656 6.640625 6.109375 6.414062 6.175781 Z M 6.414062 6.175781 "/>
<path style=" stroke:none;fill-rule:nonzero;fill:rgb(0%,0%,0%);fill-opacity:1;" d="M 8.554688 6.265625 C 8.675781 6.402344 8.703125 6.515625 8.632812 6.585938 C 8.574219 6.644531 8.460938 6.628906 8.355469 6.539062 C 8.214844 6.421875 8.160156 6.457031 8.160156 6.65625 C 8.160156 7.089844 8.558594 7.339844 8.914062 7.140625 C 9.113281 7.027344 9.199219 6.875 9.199219 6.636719 C 9.199219 6.46875 9.1875 6.421875 9.121094 6.351562 C 9 6.222656 8.886719 6.175781 8.644531 6.152344 L 8.433594 6.132812 Z M 8.554688 6.265625 "/>
<path style=" stroke:none;fill-rule:nonzero;fill:rgb(0%,0%,0%);fill-opacity:1;" d="M 7.9375 7.210938 C 7.9375 7.253906 7.957031 7.34375 7.988281 7.410156 C 8.015625 7.476562 8.039062 7.601562 8.039062 7.6875 C 8.035156 7.796875 8.050781 7.847656 8.082031 7.863281 C 8.242188 7.921875 8.273438 7.601562 8.136719 7.324219 C 8.039062 7.136719 7.9375 7.074219 7.9375 7.210938 Z M 7.9375 7.210938 "/>
<path style=" stroke:none;fill-rule:nonzero;fill:rgb(0%,0%,0%);fill-opacity:1;" d="M 6.753906 8.082031 C 6.753906 8.503906 7.617188 8.910156 7.960938 8.648438 C 8.125 8.527344 8.09375 8.511719 7.738281 8.53125 C 7.335938 8.558594 7.214844 8.519531 7.074219 8.3125 C 6.90625 8.070312 6.84375 8 6.796875 8 C 6.769531 8 6.753906 8.03125 6.753906 8.082031 Z M 6.753906 8.082031 "/>
</g>
</svg>
